<?xml version="1.0" standalone="no"?>
<!DOCTYPE svg PUBLIC "-//W3C//DTD SVG 20010904//EN"
 "http://www.w3.org/TR/2001/REC-SVG-20010904/DTD/svg10.dtd">
<svg version="1.0" xmlns="http://www.w3.org/2000/svg"
 width="174.000000pt" height="174.000000pt" viewBox="0 0 174.000000 174.000000"
 preserveAspectRatio="xMidYMid meet">
<metadata>
Created by potrace 1.11, written by Peter Selinger 2001-2013
</metadata>
<g transform="translate(0.000000,174.000000) scale(0.100000,-0.100000)"
fill="#000000" stroke="none">
<path d="M1099 1561 c-14 -5 -99 -80 -239 -211 -48 -45 -55 -65 -30 -90 37
-37 57 -26 179 89 40 38 46 40 55 24 22 -40 14 -321 -11 -352 -2 -3 -26 17
-54 45 l-50 49 -147 2 c-112 1 -147 4 -151 15 -2 7 -16 25 -31 40 -27 26 -67
41 -145 53 -57 8 -85 30 -85 65 0 40 0 42 -11 63 -22 39 -58 4 -53 -52 9 -90
42 -122 151 -141 65 -11 113 -28 113 -40 0 -3 -12 -16 -26 -29 -45 -39 -52
-73 -52 -246 l1 -160 73 -75 74 -76 -53 -32 c-28 -17 -61 -34 -72 -38 -11 -4
-22 -10 -25 -14 -3 -3 -48 -24 -100 -46 -89 -38 -95 -42 -95 -69 0 -50 34 -58
113 -29 76 29 200 90 261 129 l43 27 126 -126 c98 -98 132 -126 153 -126 38 0
409 370 409 409 0 20 -32 58 -141 167 l-141 141 15 44 c36 105 48 290 26 388
-4 19 -6 37 -5 39 2 1 40 -29 85 -67 103 -88 111 -93 142 -78 45 23 37 57 -28
113 -31 27 -95 82 -140 122 -83 73 -104 85 -134 73z m-494 -531 c-3 -5 -1 -19
5 -30 16 -29 55 -23 55 8 0 32 18 32 30 -2 8 -25 6 -31 -19 -53 -34 -29 -62
-27 -88 8 -15 20 -17 30 -9 52 6 15 15 27 21 27 6 0 8 -4 5 -10z"/>
</g>
</svg>
